Coordinates
version=1
nRows=17
nColumns=36
inDegrees=yes

Units are S.I. units (second, meters, Newtons, ...)
If the header above contains a line with 'inDegrees', this indicates whether rotational values are in degrees (yes) or radians (no).

endheader
time	pelvis_tilt	pelvis_list	pelvis_rotation	pelvis_tx	pelvis_ty	pelvis_tz	hip_flexion_r	hip_adduction_r	hip_rotation_r	knee_angle_r	knee_angle_r_beta	ankle_angle_r	subtalar_angle_r	mtp_angle_r	hip_flexion_l	hip_adduction_l	hip_rotation_l	knee_angle_l	knee_angle_l_beta	ankle_angle_l	subtalar_angle_l	mtp_angle_l	lumbar_extension	lumbar_bending	lumbar_rotation	arm_flex_r	arm_add_r	arm_rot_r	elbow_flex_r	pro_sup_r	arm_flex_l	arm_add_l	arm_rot_l	elbow_flex_l	pro_sup_l
     18.83333330	    -19.17226967	     -4.96135006	     -0.36579329	      0.17145908	      0.95362147	     -0.05751248	     24.28258917	      2.81845268	     -2.66324539	     11.22832274	      0.19597120	     11.37408776	     -2.15592596	     -7.49999987	     35.59762584	    -11.54243713	     -6.41618813	     32.67359432	      0.57026180	     14.29184401	      0.24012706	     -7.49999987	     -4.13983302	      7.19937357	      3.56781973	      9.77669298	    -18.21161711	     32.08114634	     75.08455592	     94.46639079	     13.05913643	    -10.08165578	     34.26420968	     65.91887738	     86.51518686
     18.85000000	    -18.77483239	     -4.94840056	     -0.06702104	      0.17135870	      0.95482788	     -0.05778569	     23.31170771	      2.70695515	     -2.66285963	     10.37155007	      0.18101770	     10.87211026	     -2.50514548	     -7.49999987	     34.50303592	    -11.22445425	     -6.24541355	     31.63190509	      0.55208089	     13.93887172	      0.05442994	     -7.49999987	     -4.09026209	      7.22933511	      3.30222879	      9.36764430	    -18.36635116	     32.18980498	     75.55279834	     93.79654717	     12.58343267	     -9.97093388	     34.03491978	     66.54316155	     85.78904899
     18.86666670	    -18.83472828	     -4.88030502	      0.13731139	      0.17172147	      0.95553361	     -0.05783871	     23.15018259	      2.54251033	     -2.80962342	     10.01010182	      0.17470924	     10.60622347	     -2.62059093	     -7.49999987	     34.03988406	    -10.94611980	     -6.22683568	     30.81154326	      0.53776288	     13.73849743	      0.07341774	     -7.49999987	     -3.50732795	      7.17476157	      3.12806222	      9.00952778	    -18.42943525	     32.35079726	     75.89682530	     92.93868929	     12.21185473	     -9.88759314	     33.95152747	     66.76094205	     85.20301669
     18.88333330	    -18.89061150	     -4.77941231	      0.23319824	      0.17178481	      0.95606278	     -0.05793188	     23.02295235	      2.39680092	     -2.83914631	      9.68352440	      0.16900938	     10.47170888	     -2.70149734	     -7.49999987	     33.58259518	    -10.71126501	     -6.25621489	     30.00378075	      0.52366476	     13.47025510	      0.03641428	     -7.49999987	     -3.04026159	      7.08998964	      3.08004519	      8.80211321	    -18.57218359	     32.50281405	     76.18018720	     92.67731165	     11.94038510	     -9.95099528	     33.96369542	     66.92190577	     85.05413843
     18.90000000	    -19.02510460	     -4.68188566	      0.33708050	      0.17225245	      0.95626229	     -0.05799282	     22.85218619	      2.25816567	     -2.95950116	      9.15655638	      0.15981206	     10.40726620	     -2.63984440	     -7.49999987	     33.27460944	    -10.49646078	     -6.30858244	     29.29419612	      0.51128017	     13.31584224	      0.20937354	     -7.49999987	     -2.45557457	      6.97767051	      2.94359233	      8.39028975	    -18.69138860	     32.79891812	     76.35629567	     92.63452317	     11.92353932	     -9.98195882	     34.04313773	     67.03510674	     85.02553517
     18.91666670	    -19.11788594	     -4.61655466	      0.38238054	      0.17246082	      0.95685571	     -0.05802975	     22.80415279	      2.17415106	     -3.16623539	      8.76754066	      0.15302245	     10.20002973	     -2.58486959	     -7.49999987	     33.01451090	    -10.35997234	     -6.39208421	     28.67550306	      0.50048194	     13.07580973	      0.15759306	     -7.49999987	     -2.06240550	      6.85138220	      2.76333943	      8.20713356	    -18.82837574	     33.37224936	     76.34184446	     92.16940250	     11.84188968	    -10.06409228	     34.16982245	     66.79294440	     84.47380217
     18.93333330	    -19.27299585	     -4.57062363	      0.40243038	      0.17278985	      0.95726902	     -0.05784406	     22.83221267	      2.12005396	     -3.21538573	      8.47835943	      0.14797529	     10.33233140	     -2.53648301	     -7.49999987	     32.93887675	    -10.27155179	     -6.44772587	     28.28805096	      0.49371963	     13.06904379	      0.18488468	     -7.49999987	     -1.55039786	      6.74169057	      2.79067436	      8.00901553	    -18.78478627	     33.52382415	     76.45010927	     91.89132649	     11.68413178	    -10.13950950	     34.20899594	     66.85247349	     84.27447205
     18.95000000	    -19.21653457	     -4.43115440	      0.46453930	      0.17367613	      0.96238389	     -0.05698278	     22.35607928	      1.99007650	     -3.37667741	      7.65917993	      0.13367791	      9.90452235	     -2.20809727	     -7.49999987	     32.45372957	    -10.04765771	     -6.53534034	     27.51223837	      0.48017914	     12.53578394	      0.22720074	     -7.49999987	     -1.14617955	      6.49326737	      2.58025784	      8.13752132	    -18.69660925	     34.49364037	     76.04352178	     90.45374199	     11.97975684	    -10.28026567	     34.67187696	     66.64334278	     82.99288755
     18.96666670	    -19.03792865	     -4.21807699	      0.57846176	      0.18287602	      0.96305833	     -0.05008091	     21.51302560	      1.88383262	     -3.30162194	      6.79690234	      0.11862832	      9.69188921	     -2.05020373	     -7.49999987	     31.68910972	     -9.82761104	     -6.76291574	     26.69822733	      0.46597197	     12.16482147	      0.37741127	     -7.49999987	     -0.57786096	      5.99233039	      2.51901021	      7.68851008	    -18.40723498	     34.58392773	     75.85143778	     90.88560165	     11.61527487	    -10.64469270	     34.78219099	     66.67854466	     83.31702965
     18.98333330	    -19.08579175	     -4.16699364	      0.67934804	      0.18306710	      0.96312984	     -0.05010729	     21.11512662	      1.92017024	     -3.33812872	      6.26832392	      0.10940289	      9.63886641	     -1.98665549	     -7.49999987	     31.47449873	     -9.79286522	     -6.82450259	     26.40338933	      0.46082608	     12.00091017	      0.38620226	     -7.49999987	      0.03485073	      5.76511296	      2.44481434	      7.06404529	    -18.32219413	     34.57785735	     75.71270027	     90.56237139	     11.20571394	    -10.91709269	     34.64048959	     66.85755939	     82.98499613
     19.00000000	    -18.78988759	     -3.91732602	      0.75643911	      0.18364661	      0.96956261	     -0.05063617	     20.25179729	      1.77865555	     -3.16223375	      5.44684940	      0.09506546	      9.08699916	     -2.18746397	     -7.49999987	     30.62770627	     -9.54787911	     -7.04826038	     25.64392552	      0.44757093	     11.41566130	      0.62596461	     -7.49999987	      0.12583605	      5.34016973	      2.30972261	      7.13092326	    -18.13313642	     35.33107800	     74.55025395	     89.10879408	     11.27867462	    -11.35356339	     35.23207781	     66.68436354	     81.79121167
     19.01666670	    -18.60254434	     -3.80821697	      0.83761704	      0.18373275	      0.96951690	     -0.05107105	     19.74005597	      1.69065029	     -3.37989794	      4.98860599	      0.08706760	      9.08959002	     -1.63159186	     -7.49999987	     30.08378632	     -9.38118173	     -7.01188104	     25.06336152	      0.43743818	     11.15353991	      0.54938311	     -7.49999987	      0.04801804	      5.16731735	      2.23058619	      6.99763039	    -18.07716313	     35.25633246	     74.39042034	     89.75781613	     11.07765477	    -11.47393247	     34.97600350	     67.12182478	     82.47919461
     19.03333330	    -18.73637919	     -3.77087141	      0.88213208	      0.18407875	      0.96886581	     -0.05098594	     19.62461123	      1.70343282	     -3.40197432	      4.61283143	      0.08050910	      9.04873654	     -1.54077599	     -7.49999987	     30.01610231	     -9.30386813	     -6.99061160	     24.77794448	      0.43245671	     10.94852766	      0.58136692	     -7.49999987	      0.50737558	      5.03484653	      2.21959495	      6.85281136	    -17.96338822	     35.18623817	     74.32893775	     89.40407671	     11.04498333	    -11.50947925	     34.86509562	     67.39005847	     82.19316208
     19.05000000	    -18.47937840	     -3.65468733	      1.03222590	      0.19303485	      0.96975292	     -0.04418271	     18.81296722	      1.68885383	     -3.38659802	      3.97326164	      0.06934650	      8.93880877	     -1.44317913	     -7.49999987	     29.38617856	     -9.20381867	     -7.07502864	     24.36593179	      0.42526574	     10.83360308	      0.57905777	     -7.49999987	      0.71037819	      4.65024100	      2.09324508	      6.62954524	    -17.72754318	     35.32706220	     73.96944008	     89.68465465	     10.84514158	    -11.79322072	     35.08534121	     67.22696489	     82.45849016
     19.06666670	    -18.41414291	     -3.63554235	      1.07161205	      0.19303086	      0.96971089	     -0.04415514	     18.43448568	      1.79774021	     -3.45418148	      3.60289602	      0.06288240	      9.03128625	     -1.48707964	     -7.49999987	     29.11805928	     -9.24906689	     -7.07897513	     24.14125253	      0.42134434	     10.88496752	      0.47627263	     -7.49999987	      1.12458061	      4.38011708	      2.15265803	      6.31249336	    -17.56538952	     35.36794653	     73.95637279	     89.51655552	     10.34793666	    -12.13291974	     35.08306073	     67.18577304	     82.32609352
     19.08333330	    -17.98664790	     -3.43934133	      1.21643171	      0.19290624	      0.97080662	     -0.04427430	     17.60953616	      1.66575218	     -3.42264769	      3.07366223	      0.05364553	      8.84269946	     -1.29922858	     -7.49999987	     28.10961763	     -9.00201879	     -7.03564416	     23.19977411	      0.40491244	     10.54004128	      0.44932539	     -7.49999987	      1.00713838	      3.91186025	      2.02940859	      6.26927069	    -17.44479840	     35.75410633	     73.73621765	     89.26845168	     10.09924295	    -12.70483930	     35.42059443	     67.39326912	     82.24605080
     19.10000000	    -17.80093554	     -3.35967614	      1.32509977	      0.19299107	      0.97123609	     -0.04442374	     17.15035505	      1.63933001	     -3.42627515	      2.75746217	      0.04812679	      8.91339954	     -1.18068433	     -7.49999987	     27.53728926	     -8.85916560	     -6.91285555	     22.60023883	      0.39444858	     10.45195718	      0.34207291	     -7.49999987	      1.12072289	      3.61749752	      1.93165274	      6.07103146	    -17.49264133	     36.35291767	     73.87168647	     88.71428105	      9.88115973	    -13.10514671	     35.69237323	     67.82409107	     81.86042595
